# xmcd CD database file
#
# Track frame offsets:
#	150
#	12963
#	31361
#	46077
#	55616
#	73151
#	86692
#	104014
#	122048
#	135816
#
# Disc length: 2025 seconds
#
# Revision: 1
# Processed by: cddbd v1.5.2PL0 Copyright (c) Steve Scherf et al.
# Submitted via: CDex 1.79
#
DISCID=7d07e70a
DTITLE=Mike Rodgers - Honkytonk Hitman
DYEAR=2004
DGENRE=Country
TTITLE0=Honkytonk Hitman
TTITLE1=Me, Jack And Jesus
TTITLE2=Motel Matches
TTITLE3=What Am I To You
TTITLE4=She`s A Sad Country Song
TTITLE5=Dark Cloud
TTITLE6=Sweet Country Lovin`(featuring Stacy Allen)
TTITLE7=It`s My Heart That`s Holdin` On
TTITLE8=When I Get Out Of Prison
TTITLE9=The Women Make A Fool Of Me
EXTD=YEAR: 2004
EXTT0=
EXTT1=
EXTT2=
EXTT3=
EXTT4=
EXTT5=
EXTT6=
EXTT7=
EXTT8=
EXTT9=
PLAYORDER=
